<?xml version="1.0" encoding="UTF-8"?>
<svg id="Layer_2" data-name="Layer 2" xmlns="http://www.w3.org/2000/svg" xmlns:xlink="http://www.w3.org/1999/xlink" viewBox="0 0 67.94 68.68">
  <defs>
    <style>
      .cls-1 {
        stroke: url(#New_Gradient_Swatch_1-6);
      }

      .cls-1, .cls-2, .cls-3, .cls-4, .cls-5, .cls-6, .cls-7, .cls-8, .cls-9, .cls-10, .cls-11, .cls-12, .cls-13, .cls-14, .cls-15, .cls-16 {
        fill: none;
      }

      .cls-1, .cls-17, .cls-10, .cls-18 {
        stroke-width: .25px;
      }

      .cls-2 {
        stroke: url(#New_Gradient_Swatch_1-9);
      }

      .cls-3 {
        stroke: url(#New_Gradient_Swatch_1-23);
      }

      .cls-3, .cls-4, .cls-5, .cls-7, .cls-8, .cls-19, .cls-9, .cls-11, .cls-13, .cls-14, .cls-15, .cls-16 {
        stroke-width: .5px;
      }

      .cls-4 {
        stroke: url(#New_Gradient_Swatch_1-12);
      }

      .cls-20 {
        fill: url(#linear-gradient);
      }

      .cls-20, .cls-21, .cls-22, .cls-23, .cls-24, .cls-25, .cls-26, .cls-27, .cls-28, .cls-29, .cls-30, .cls-31, .cls-32, .cls-33 {
        stroke-width: 0px;
      }

      .cls-17 {
        stroke: url(#New_Gradient_Swatch_1-5);
      }

      .cls-17, .cls-19, .cls-24, .cls-34, .cls-18 {
        fill: #fff;
      }

      .cls-5 {
        stroke: url(#New_Gradient_Swatch_1-26);
      }

      .cls-21 {
        fill: url(#linear-gradient-6);
      }

      .cls-6 {
        stroke: url(#New_Gradient_Swatch_1-11);
      }

      .cls-6, .cls-35, .cls-34, .cls-12 {
        stroke-width: .75px;
      }

      .cls-7 {
        stroke: url(#New_Gradient_Swatch_1-17);
      }

      .cls-8 {
        stroke: url(#New_Gradient_Swatch_1-19);
      }

      .cls-22 {
        fill: url(#linear-gradient-5);
      }

      .cls-19 {
        stroke: url(#New_Gradient_Swatch_1-16);
      }

      .cls-35 {
        fill: url(#New_Gradient_Swatch_1-14);
        stroke: url(#New_Gradient_Swatch_1-15);
      }

      .cls-9 {
        stroke: url(#New_Gradient_Swatch_1-21);
      }

      .cls-23 {
        fill: url(#New_Gradient_Swatch_1-3);
      }

      .cls-25 {
        fill: url(#New_Gradient_Swatch_1-28);
      }

      .cls-26 {
        fill: url(#New_Gradient_Swatch_1-8);
      }

      .cls-27 {
        fill: url(#linear-gradient-2);
      }

      .cls-28 {
        fill: url(#New_Gradient_Swatch_1);
      }

      .cls-34 {
        stroke: url(#New_Gradient_Swatch_1-13);
      }

      .cls-29 {
        fill: url(#New_Gradient_Swatch_1-29);
      }

      .cls-30 {
        fill: url(#linear-gradient-3);
      }

      .cls-10 {
        stroke: url(#New_Gradient_Swatch_1-7);
      }

      .cls-31 {
        fill: url(#New_Gradient_Swatch_1-2);
      }

      .cls-32 {
        fill: url(#New_Gradient_Swatch_1-27);
      }

      .cls-11 {
        stroke: url(#New_Gradient_Swatch_1-24);
      }

      .cls-12 {
        stroke: url(#New_Gradient_Swatch_1-10);
      }

      .cls-13 {
        stroke: url(#New_Gradient_Swatch_1-20);
      }

      .cls-14 {
        stroke: url(#New_Gradient_Swatch_1-25);
      }

      .cls-18 {
        stroke: url(#New_Gradient_Swatch_1-4);
      }

      .cls-15 {
        stroke: url(#New_Gradient_Swatch_1-18);
      }

      .cls-16 {
        stroke: url(#New_Gradient_Swatch_1-22);
      }

      .cls-33 {
        fill: url(#linear-gradient-4);
      }
    </style>
    <linearGradient id="New_Gradient_Swatch_1" data-name="New Gradient Swatch 1" x1="44.87" y1="43.04" x2="54.38" y2="43.04" gradientUnits="userSpaceOnUse">
      <stop offset="0" stop-color="#f5843a"/>
      <stop offset=".04" stop-color="#f47a38"/>
      <stop offset=".23" stop-color="#f15830"/>
      <stop offset=".41" stop-color="#ef3e2b"/>
      <stop offset=".6" stop-color="#ee2b27"/>
      <stop offset=".79" stop-color="#ed1f24"/>
      <stop offset="1" stop-color="#ed1c24"/>
    </linearGradient>
    <linearGradient id="New_Gradient_Swatch_1-2" data-name="New Gradient Swatch 1" x1="27.61" y1="32.97" x2="39.87" y2="32.97" xlink:href="#New_Gradient_Swatch_1"/>
    <linearGradient id="New_Gradient_Swatch_1-3" data-name="New Gradient Swatch 1" x1="28.26" y1="31.07" x2="39.01" y2="31.07" xlink:href="#New_Gradient_Swatch_1"/>
    <linearGradient id="New_Gradient_Swatch_1-4" data-name="New Gradient Swatch 1" x1="27.74" y1="29.01" x2="35.02" y2="29.01" xlink:href="#New_Gradient_Swatch_1"/>
    <linearGradient id="New_Gradient_Swatch_1-5" data-name="New Gradient Swatch 1" x1="35.03" y1="25.45" x2="40.1" y2="25.45" xlink:href="#New_Gradient_Swatch_1"/>
    <linearGradient id="New_Gradient_Swatch_1-6" data-name="New Gradient Swatch 1" x1="34.74" y1="20.24" x2="35.23" y2="20.24" xlink:href="#New_Gradient_Swatch_1"/>
    <linearGradient id="New_Gradient_Swatch_1-7" data-name="New Gradient Swatch 1" x1="33.22" y1="21.44" x2="35.3" y2="21.44" xlink:href="#New_Gradient_Swatch_1"/>
    <linearGradient id="New_Gradient_Swatch_1-8" data-name="New Gradient Swatch 1" x1="28.11" y1="23.21" x2="35.26" y2="23.21" xlink:href="#New_Gradient_Swatch_1"/>
    <linearGradient id="New_Gradient_Swatch_1-9" data-name="New Gradient Swatch 1" x1="28.67" y1="25.74" x2="31.83" y2="25.74" xlink:href="#New_Gradient_Swatch_1"/>
    <linearGradient id="New_Gradient_Swatch_1-10" data-name="New Gradient Swatch 1" x1="31.53" y1="25.6" x2="32.32" y2="25.6" xlink:href="#New_Gradient_Swatch_1"/>
    <linearGradient id="New_Gradient_Swatch_1-11" data-name="New Gradient Swatch 1" x1="28.89" y1="24.25" x2="29.42" y2="24.25" xlink:href="#New_Gradient_Swatch_1"/>
    <linearGradient id="New_Gradient_Swatch_1-12" data-name="New Gradient Swatch 1" x1="30.26" y1="18.72" x2="34.96" y2="18.72" xlink:href="#New_Gradient_Swatch_1"/>
    <linearGradient id="New_Gradient_Swatch_1-13" data-name="New Gradient Swatch 1" x1="28.81" y1="22.23" x2="33.81" y2="22.23" xlink:href="#New_Gradient_Swatch_1"/>
    <linearGradient id="New_Gradient_Swatch_1-14" data-name="New Gradient Swatch 1" x1="30.84" y1="20.03" x2="32.55" y2="20.03" xlink:href="#New_Gradient_Swatch_1"/>
    <linearGradient id="New_Gradient_Swatch_1-15" data-name="New Gradient Swatch 1" x1="30.47" y1="19.98" x2="32.92" y2="19.98" xlink:href="#New_Gradient_Swatch_1"/>
    <linearGradient id="New_Gradient_Swatch_1-16" data-name="New Gradient Swatch 1" x1="12.77" y1="43" x2="22.95" y2="43" xlink:href="#New_Gradient_Swatch_1"/>
    <linearGradient id="New_Gradient_Swatch_1-17" data-name="New Gradient Swatch 1" x1="17.64" y1="42.97" x2="18.14" y2="42.97" xlink:href="#New_Gradient_Swatch_1"/>
    <linearGradient id="New_Gradient_Swatch_1-18" data-name="New Gradient Swatch 1" x1="17.04" y1="45.2" x2="18.69" y2="45.2" xlink:href="#New_Gradient_Swatch_1"/>
    <linearGradient id="New_Gradient_Swatch_1-19" data-name="New Gradient Swatch 1" x1="16.92" y1="46.12" x2="18.76" y2="46.12" xlink:href="#New_Gradient_Swatch_1"/>
    <linearGradient id="New_Gradient_Swatch_1-20" data-name="New Gradient Swatch 1" x1="14.2" y1="42.93" x2="21.41" y2="42.93" xlink:href="#New_Gradient_Swatch_1"/>
    <linearGradient id="New_Gradient_Swatch_1-21" data-name="New Gradient Swatch 1" x1="14.47" y1="41.22" x2="21.17" y2="41.22" xlink:href="#New_Gradient_Swatch_1"/>
    <linearGradient id="New_Gradient_Swatch_1-22" data-name="New Gradient Swatch 1" x1="14.47" y1="42.24" x2="21.17" y2="42.24" xlink:href="#New_Gradient_Swatch_1"/>
    <linearGradient id="New_Gradient_Swatch_1-23" data-name="New Gradient Swatch 1" x1="14.47" y1="43.14" x2="21.17" y2="43.14" xlink:href="#New_Gradient_Swatch_1"/>
    <linearGradient id="New_Gradient_Swatch_1-24" data-name="New Gradient Swatch 1" x1="14.47" y1="43.82" x2="21.17" y2="43.82" xlink:href="#New_Gradient_Swatch_1"/>
    <linearGradient id="New_Gradient_Swatch_1-25" data-name="New Gradient Swatch 1" x1="14.38" y1="44.64" x2="16.58" y2="44.64" xlink:href="#New_Gradient_Swatch_1"/>
    <linearGradient id="New_Gradient_Swatch_1-26" data-name="New Gradient Swatch 1" x1="18.88" y1="44.7" x2="21.09" y2="44.7" xlink:href="#New_Gradient_Swatch_1"/>
    <linearGradient id="New_Gradient_Swatch_1-27" data-name="New Gradient Swatch 1" x1="0" y1="42.09" x2="25.86" y2="42.09" xlink:href="#New_Gradient_Swatch_1"/>
    <linearGradient id="New_Gradient_Swatch_1-28" data-name="New Gradient Swatch 1" x1="42.19" y1="42.12" x2="67.81" y2="42.12" xlink:href="#New_Gradient_Swatch_1"/>
    <linearGradient id="New_Gradient_Swatch_1-29" data-name="New Gradient Swatch 1" x1="17.82" y1="12.4" x2="49.74" y2="12.4" xlink:href="#New_Gradient_Swatch_1"/>
    <linearGradient id="linear-gradient" x1="15.46" y1="36.1" x2="59.89" y2="36.1" gradientUnits="userSpaceOnUse">
      <stop offset="0" stop-color="#31b3dd"/>
      <stop offset=".48" stop-color="#0084c6"/>
      <stop offset=".51" stop-color="#0588c7"/>
      <stop offset=".73" stop-color="#35abd8"/>
      <stop offset=".9" stop-color="#52c1e3"/>
      <stop offset="1" stop-color="#5ecae7"/>
    </linearGradient>
    <linearGradient id="linear-gradient-2" x1="10.56" y1="68.06" x2="10.56" y2="54.72" gradientUnits="userSpaceOnUse">
      <stop offset="0" stop-color="#3d90ce"/>
      <stop offset="1" stop-color="#61cae5"/>
    </linearGradient>
    <linearGradient id="linear-gradient-3" x1="35.05" x2="35.05" xlink:href="#linear-gradient-2"/>
    <linearGradient id="linear-gradient-4" x1="35.05" x2="35.05" xlink:href="#linear-gradient-2"/>
    <linearGradient id="linear-gradient-5" x1="58.93" y1="68.68" x2="58.93" y2="54.1" xlink:href="#linear-gradient-2"/>
    <linearGradient id="linear-gradient-6" x1="58.93" y1="68.68" x2="58.93" y2="54.1" xlink:href="#linear-gradient-2"/>
  </defs>
  <g id="Layer_1-2" data-name="Layer 1">
    <g>
      <path class="cls-28" d="m47.22,37.8v.6h.78v3.67l-2.94,4.66s-.78,1.22.78,1.62h7.61s1.2-.33.88-1.26l-3.22-4.8v-3.84h.85v-.73l-4.74.07Z"/>
      <polygon class="cls-24" points="50.45 38.5 48.67 38.5 48.67 42.17 47.4 44.15 51.79 44.15 50.41 42.17 50.45 38.5"/>
      <polygon class="cls-31" points="39.87 33.59 27.61 33.59 27.61 32.35 28.32 32.35 39.87 32.35 39.87 33.59"/>
      <path class="cls-23" d="m39.01,32.2v.15l-.76-.05s0-.49-.61-.59h-8.01s-.45-.25-.55.69h-.76l-.05-.15s-.31-1.73,3.55-1.39v-1.13h4.4l.25.59s.46.08,1,.33h.01c.59.28,1.26.75,1.53,1.55Z"/>
      <rect class="cls-18" x="27.87" y="28.39" width="7.03" height="1.24"/>
      <path class="cls-17" d="m37.48,30.65h-.01c-.54-.25-1-.33-1-.33l-.25-.59h-.08c.85-.65,2.41-2.24,2.05-4.94,0,0-.65-2.16-2.94-3.12h.01s-.05-1.41-.05-1.41c3.72.51,4.71,4.24,4.71,4.24.41,3.62-1.69,5.58-2.44,6.15Z"/>
      <path class="cls-1" d="m35.21,20.26c-.15-.02-.3-.03-.46-.04"/>
      <path class="cls-10" d="m35.25,21.67c-.56-.25-1.23-.42-2.02-.46"/>
      <path class="cls-26" d="m35.26,21.66h-.01s-1,.64-1,.64c-.61,1.29-2.84,5.3-2.84,5.3-1.92.64-3.29-1.49-3.29-1.49-.16-.39,2.48-7.42,2.48-7.42l.65.09-.05.14-.04.1v.02l-.16.44c-.21,0-1.18,3.04-1.73,4.82-.11.33-.2.62-.26.83-.08.27-.13.43-.13.43.3,1.15,2.37,1.3,2.37,1.3l.24-.51.42-.86h0s.06-.12.06-.12l1.36-3.27-.61-.29-.5-.55v-1.58h1.67l.24.09.48.18.6.22v.09l.05,1.4Z"/>
      <polyline class="cls-2" points="28.88 25.07 29.01 25.13 31.49 26.35 31.61 26.41"/>
      <polyline class="cls-12" points="32.17 25.6 31.91 25.49 31.91 25.48"/>
      <line class="cls-6" x1="29.27" y1="24.3" x2="29.04" y2="24.2"/>
      <path class="cls-4" d="m34.58,20.15s.33-1.74-.06-2.71c0,0-.97-.93-1.76-.02,0,0-.18-.15-1.21,1.2,0,0-.81-.18-.95.07l1,.59s.1-.82.83-.99c0,0,1.41-.15,1.69.92l.02.9.2.22.24-.19Z"/>
      <path class="cls-34" d="m33.33,22.1l-1.36,3.27-.06.11-2.64-1.18c.55-1.78,1.52-4.82,1.73-4.82l.16-.44c.99.59,1.06,1.79,1.06,2.13v.09l.5.55.61.29Z"/>
      <path class="cls-35" d="m32.22,21.26v-.09c0-.34-.07-1.54-1.06-2.13,0-.01-.01-.01-.01-.01-.06-.03-.1-.06-.14-.09-.05-.02-.08-.05-.11-.07-.15-.12.02-.09.3.05.13.06.27.15.42.25.21.15.43.34.6.56.2.25.33.54.33.85l-.33.68Z"/>
      <rect class="cls-19" x="13.02" y="38.01" width="9.68" height="9.99"/>
      <line class="cls-7" x1="17.89" y1="39.23" x2="17.89" y2="46.72"/>
      <line class="cls-15" x1="17.04" y1="45.2" x2="18.69" y2="45.2"/>
      <line class="cls-8" x1="16.92" y1="46.12" x2="18.76" y2="46.12"/>
      <path class="cls-13" d="m17,44.15s-1.1,3.11-2.26.78c0,0-.49-2.93-.19-4.28,0,0,1.2-.6,3.1-.54,0,0,2.9-.24,3.43.63,0,0,.31,2.84-.24,4.4,0,0-.83,1.35-1.56,0,0,0-.77-1.17-1.17-1.05,0,0-1.13-.18-1.1.06Z"/>
      <path class="cls-9" d="m14.55,40.94s3,1.08,6.56.18"/>
      <path class="cls-16" d="m14.55,41.96s3,1.07,6.56.18"/>
      <path class="cls-3" d="m14.55,42.86s3,1.08,6.56.18"/>
      <path class="cls-11" d="m14.55,43.55s3,1.08,6.56.18"/>
      <path class="cls-14" d="m14.59,44.18s.45.78,1.99.81"/>
      <path class="cls-5" d="m19,44.77s.82.42,1.96-.3"/>
      <polygon class="cls-32" points="12.99 32.17 0 52.01 25.86 52.01 8.04 47.88 12.99 32.17"/>
      <polygon class="cls-25" points="54.94 32.23 67.81 52.01 42.19 52.01 59.84 47.89 54.94 32.23"/>
      <polygon class="cls-29" points="17.94 24.56 33.9 0 49.74 24.56 33.9 8.35 17.82 24.8 17.94 24.56"/>
      <polygon class="cls-20" points="33.9 39.43 11.63 25.4 33.9 46.93 56.05 25.28 33.9 39.43"/>
      <path class="cls-27" d="m19.64,57.96c-.83-1.23-2.09-2.12-3.81-2.68-1.18-.38-2.92-.56-5.15-.56H.51v.29c.32.08.56.16.64.3.13.11.21.24.21.46v11.28c0,.19-.08.35-.21.46-.08.11-.32.16-.64.24v.32h10.18c1.69,0,3.08-.11,4.15-.35,1.1-.19,2.04-.56,2.84-1.07,1.96-1.21,2.92-2.95,2.92-5.25,0-1.31-.32-2.47-.96-3.43Zm-5.68,7.42c-.8.32-2.01.48-3.59.48h-5.01v-8.95h5.01c1.21,0,2.2.11,2.92.27.72.19,1.34.48,1.85.91.94.78,1.39,1.85,1.39,3.3,0,1.96-.86,3.3-2.57,3.99Z"/>
      <path class="cls-30" d="m45.99,55.31c.13-.13.35-.21.67-.3v-.29h-6.91v.29c.46.05.7.21.7.46,0,.16-.11.38-.35.67l-5.07,6.78-4.96-6.89c-.13-.16-.21-.32-.21-.46,0-.27.24-.46.64-.56v-.29h-7.05v.29c.35.08.56.16.67.3.13.11.19.24.19.43v11.31c0,.19-.05.35-.19.46-.11.11-.32.16-.67.24v.32h5.39v-.32c-.32-.08-.54-.13-.67-.24-.13-.11-.19-.27-.19-.46v-8.2l6.73,9.22,7.13-9.22v8.2c0,.19-.08.35-.21.46-.13.11-.35.16-.64.24v.32h5.68v-.32c-.32-.08-.54-.13-.67-.24-.13-.11-.19-.27-.19-.46v-11.31c0-.19.05-.32.19-.43Z"/>
      <path class="cls-33" d="m45.99,55.31c.13-.13.35-.21.67-.3v-.29h-6.91v.29c.46.05.7.21.7.46,0,.16-.11.38-.35.67l-5.07,6.78-4.96-6.89c-.13-.16-.21-.32-.21-.46,0-.27.24-.46.64-.56v-.29h-7.05v.29c.35.08.56.16.67.3.13.11.19.24.19.43v11.31c0,.19-.05.35-.19.46-.11.11-.32.16-.67.24v.32h5.39v-.32c-.32-.08-.54-.13-.67-.24-.13-.11-.19-.27-.19-.46v-8.2l6.73,9.22,7.13-9.22v8.2c0,.19-.08.35-.21.46-.13.11-.35.16-.64.24v.32h5.68v-.32c-.32-.08-.54-.13-.67-.24-.13-.11-.19-.27-.19-.46v-11.31c0-.19.05-.32.19-.43Z"/>
      <path class="cls-22" d="m67.51,65.22c-.11.24-.21.4-.38.51-.13.08-.32.13-.59.13h-11.77v-3.67h7.42c.27,0,.46.05.62.16.13.08.27.24.35.48h.43v-3.38h-.43c-.08.24-.21.38-.35.48-.16.11-.35.13-.62.13h-7.42v-3.16h11.42c.27,0,.48.05.64.16.11.08.24.24.32.48h.43v-3.46h-.43c-.08.21-.21.4-.32.48-.16.08-.38.13-.64.13h-16.27v.29c.35.08.54.16.67.3.13.11.21.24.21.46v11.28c0,.19-.08.35-.21.46-.13.11-.32.16-.67.24v.32h16.62c.27,0,.46.03.59.13.16.08.27.27.38.48h.43v-3.46h-.43Z"/>
      <path class="cls-21" d="m67.51,65.22c-.11.24-.21.4-.38.51-.13.08-.32.13-.59.13h-11.77v-3.67h7.42c.27,0,.46.05.62.16.13.08.27.24.35.48h.43v-3.38h-.43c-.08.24-.21.38-.35.48-.16.11-.35.13-.62.13h-7.42v-3.16h11.42c.27,0,.48.05.64.16.11.08.24.24.32.48h.43v-3.46h-.43c-.08.21-.21.4-.32.48-.16.08-.38.13-.64.13h-16.27v.29c.35.08.54.16.67.3.13.11.21.24.21.46v11.28c0,.19-.08.35-.21.46-.13.11-.32.16-.67.24v.32h16.62c.27,0,.46.03.59.13.16.08.27.27.38.48h.43v-3.46h-.43Z"/>
    </g>
  </g>
</svg>